# xmcd
#
# Track frame offsets: 
#        182
#        28597
#        58067
#        93465
#        124865
#        154552
#        186702
#        219585
#        245960
#
# Disc length: 3728 seconds
#
# Revision: 5
# Processed by: cddbd v1.5.2PL0 Copyright (c) Steve Scherf et al.
# Submitted via: ExactAudioCopy v0.99pb4
#
DISCID=860e8e09
DTITLE=Various Artist - Dance Traxx vol. 2
DYEAR=1987
DGENRE=Dance
TTITLE0=Nu Shooz - I Can't Wait (Vocal Long Dutch Mix)
TTITLE1=Regina - Baby Love (Vocal Long Version)
TTITLE2=Stacy Q - Two Of Hearts (Original Mix)
TTITLE3=Suzy - Can't Live Without Your Love (Double Dub Mix)
TTITLE4=Nu Shooz - Point Of No Return (Special Mix) 
TTITLE5=Nancy Martinez - For Tonight (Club Mix)
TTITLE6=Mel and Kim - Showing Out (Get Fresh At The Weekend)(Vocal Mix)
TTITLE7=Nice and Wild - Diamond Girl (Vocal Disco Version)
TTITLE8=Stacy Q - We Connect (European Mix)
EXTD=
EXTT0=
EXTT1=
EXTT2=
EXTT3=
EXTT4=
EXTT5=
EXTT6=
EXTT7=
EXTT8=
PLAYORDER=
